# xmcd CD database file
#
# Track frame offsets:
#	150
#	8250
#	37800
#	47175
#	84225
#	104225
#	119025
#	135525
#	164625
#
# Disc length: 2347 seconds
#
# Revision: 2
# Processed by: cddbd v1.5.2PL0 Copyright (c) Steve Scherf et al.
# Submitted via: CDex 1.51
#
DISCID=70092909
DTITLE=Mark O'Connor - Markology
DYEAR=1979
DGENRE=Bluegrass
TTITLE0=Dixie Breakdown
TTITLE1=Markology
TTITLE2=Kit's Waltz
TTITLE3=Fluid Drive
TTITLE4=Blackberry Blossom
TTITLE5=Pickin' In The Wind
TTITLE6=Banks Of The Ohio
TTITLE7=Beserkeley
TTITLE8=On Top Of The World
EXTD=YEAR: 1979
EXTT0=
EXTT1=
EXTT2=
EXTT3=
EXTT4=
EXTT5=
EXTT6=
EXTT7=
EXTT8=
PLAYORDER=
